PathFileType	4	(X/Y/Z)	28_2_78_p0_0-395.trc
DataRate	CameraRate	NumFrames	NumMarkers	Units	OrigDataRate	OrigDataStartFrame	OrigNumFrames
52.0	52.0	5	27	m	52.0	297	396
Frame#	Time	RHip			RKnee			RAnkle			RBigToe			RSmallToe			RHeel			LHip			LKnee			LAnkle			LBigToe			LSmallToe			LHeel			Neck			Head			Nose			RShoulder			RElbow			RWrist			RThumb			RIndex			RPinky			LShoulder			LElbow			LWrist			LThumb			LIndex			LPinky			
		X1	Y1	Z1	X2	Y2	Z2	X3	Y3	Z3	X4	Y4	Z4	X5	Y5	Z5	X6	Y6	Z6	X7	Y7	Z7	X8	Y8	Z8	X9	Y9	Z9	X10	Y10	Z10	X11	Y11	Z11	X12	Y12	Z12	X13	Y13	Z13	X14	Y14	Z14	X15	Y15	Z15	X16	Y16	Z16	X17	Y17	Z17	X18	Y18	Z18	X19	Y19	Z19	X20	Y20	Z20	X21	Y21	Z21	X22	Y22	Z22	X23	Y23	Z23	X24	Y24	Z24	X25	Y25	Z25	X26	Y26	Z26	X27	Y27	Z27	
297	5.711538461538462	0.22742523064614634	0.6730052051427776	1.0072052724284426	0.22945598681642423	0.9115164065908125	1.3889891721892302	0.24913757960406627	1.0656465844946887	1.740047207600762	0.18588697560532916	0.9324651331202658	1.8202849437384498	0.25245099674016425	0.912675212629334	1.805061937637755	0.24328839015018885	1.119035307421123	1.7771543030437305	0.039047371588693015	0.6971710433363698	1.0201693920089212	0.05021833131362305	0.8672531259569329	1.376941688068476	0.055999639288672916	1.1014667532526452	1.7607801319525525	0.018238430827956918	0.8725817883575223	1.8085286167708396	-0.026554493340999036	0.9511121827295658	1.8057632942373618	0.07601408459288726	1.17182139408185	1.7944687144721871	0.08960571121614862	0.5300284281602123	0.49047702888328165	0.08310754705970352	0.3998421380957877	0.2924226358925643	0.09769308054905992	0.427968185995932	0.4035807110195133	0.21500141928938452	0.4948429098034435	0.5099056052416188	0.36934875520055616	0.396871571244423	0.32096249505982277	0.31724474893755705	0.41527632462797087	0.11809430070662101	0.2338898023162244	0.4210344555291424	0.04813330097500589	0.22717573000159585	0.42267262209092554	0.036995981822701904	0.26504815065582304	0.36657702087901023	0.05546434249102204	-0.041190299584673455	0.6018778438283634	0.5859893962577186	-0.03913292024081399	0.6848954494447601	0.8067178922216383	-0.05735458072211274	0.7104194543362944	1.0414386596051086	-0.04459182698792916	0.6989961782146864	1.1350007607751171	-0.05856907094482223	0.7057839096193823	1.154685449873185	-0.06281743030498917	0.7310429833056515	1.142968100521351
298	5.730769230769231	0.22746680995537127	0.6729068960912503	1.00714374227818	0.23002232817121615	0.9111222016763633	1.3928129146232182	0.25414413787547746	1.0660353518712777	1.7438892327937812	0.1857401372275181	0.9325754967479245	1.8204458082824155	0.2473193758566175	0.9112479402828352	1.8050233006087342	0.24839389700510559	1.1199816552430861	1.776693035178085	0.04360066351218628	0.6996270601931581	1.0238292952177832	0.05382714147952907	0.8822261310790152	1.3781369167034576	0.0558946431066195	1.1016156993564863	1.7608790173744298	0.018224861712196897	0.8728660309327766	1.8085269833568294	-0.027000727273216542	0.9513563058024062	1.8014993300455442	0.07597321273206903	1.1725180046662598	1.794703669158634	0.08911414966587101	0.5300735515546678	0.4906688367153829	0.08258981766771274	0.3994206826277811	0.2924458146226005	0.09802088042776191	0.42972562541668313	0.40666494296243566	0.2109270183478537	0.49451682482772413	0.5101289890827495	0.3532156851123382	0.39652239626589614	0.3145090477325978	0.3118348648941318	0.3991469186906456	0.10750775156550565	0.22968514273747315	0.4078654581462074	0.03540736428489537	0.2269579189482956	0.42061991465041065	0.024295315176626735	0.2554707255750151	0.35017716430132684	0.048366226830599844	-0.04128501529699138	0.6015074113282682	0.5861864796635877	-0.03898289698380863	0.6854356652807774	0.8103942730081384	-0.05445969864404718	0.7210059159035996	1.03375207922877	-0.04052381334404477	0.6984649440147953	1.1310385528586793	-0.05441006003448795	0.7049418747088738	1.1504850243075326	-0.06107938653492292	0.7450342603335435	1.1395810192758549
299	5.75	0.22715983596468192	0.6725886760535486	1.0033659901799408	0.23513737243232566	0.9102631721135954	1.3884830636601573	0.2538088445766981	1.0661859369959783	1.7398155276574094	0.1857994678576807	0.9328376511663778	1.8204654823970534	0.24732979740577338	0.9116784121623743	1.804990100558341	0.2482379529764215	1.1193286151962774	1.7767632688064479	0.046888272688657265	0.7122213045006853	1.0193366294370774	0.05379633723889263	0.8825858179248441	1.3783537724554664	0.05691670517337266	1.1050499622715733	1.7657096591824897	0.018161513074452292	0.8727040170141345	1.8086924371798265	-0.027092419076447275	0.9513457587646271	1.8016666283646965	0.07604583131719164	1.1728422568571546	1.7947401766796036	0.08534347779712236	0.5429143374424235	0.48827239621845453	0.08243561915966958	0.39940945873266465	0.2924982430436177	0.0981989230366951	0.4303161018961432	0.4103275558883926	0.20657115478635943	0.4936047936100119	0.5071496864957609	0.3382958159209812	0.39932979714870837	0.30725857057956474	0.30414356767536643	0.36140986734445596	0.10967110245935675	0.22960777579527974	0.40578608500401175	0.029999895739170227	0.2233624428251696	0.39057652137694665	0.01909061663810034	0.24908012614149472	0.3401253729774013	0.0319311588956522	-0.045131012118328796	0.6024988631820611	0.5934429335949447	-0.042981320810572016	0.6859771171576657	0.8181478614800801	-0.051889132014815306	0.7357753405255243	1.0368260496681696	-0.04543451384221345	0.6948385825833938	1.1314732477838425	-0.055913385369687194	0.7011874056645878	1.1499402770435048	-0.06654945881247197	0.7437336565658248	1.1429034885506262
300	5.769230769230769	0.22947096064311232	0.6555297452309594	1.0000257010422542	0.23418173995870165	0.9117000294847012	1.388618040107129	0.24945043848268172	1.0654913337029601	1.744036146842625	0.1820955900737402	0.9188180764660451	1.817481162205079	0.2504312472728022	0.8948478426326266	1.800971141974537	0.24168732588395714	1.1159353980583386	1.7720418741767594	0.04681548032091999	0.7121146698160006	1.0192835166521015	0.05412635066280514	0.8828540377170648	1.3826189907736812	0.055844486039652405	1.101621251876588	1.7609959573196303	0.018186761371477855	0.8727604131675315	1.808800338097457	-0.026728436313822056	0.9512957783274779	1.8060763666382926	0.07662275421697619	1.1727340959943446	1.7992291956597959	0.08558481255585662	0.5435309130546321	0.49201280253965046	0.08227057149623584	0.39962845078982634	0.2926054759635266	0.09473931218504221	0.4300722659368477	0.41442425359734425	0.206425605388411	0.49338378141792966	0.5070251526543794	0.32702310562475595	0.4012904137650186	0.30746688602171873	0.29581374602996846	0.3559544713179553	0.09952060462430082	0.22512395649301065	0.39109512731867635	0.02137909561920445	0.21800731928628495	0.3689129852271655	0.0014059844611287414	0.24210821262959803	0.32006836510035463	0.0028258829491809774	-0.04503432836089671	0.6013937558759559	0.5897849728973104	-0.04296915280796342	0.6861041676543677	0.8180353745493364	-0.053709698225758745	0.7249663783035102	1.0372059384594212	-0.04912682117152343	0.7128439536799135	1.1281290285490797	-0.054630236980974765	0.7055036723942765	1.1472913734922756	-0.06494090943004766	0.7456244207677478	1.1405783830001555
301	5.788461538461538	0.22950677420279442	0.6554554505112378	0.9997888547773486	0.2387925676536037	0.8930660919066076	1.386664808788726	0.24946456082898733	1.065498478459469	1.7440430720755937	0.18569942025613814	0.932729318393346	1.8205726618774247	0.2502740220745668	0.8947928815251563	1.8011261679353672	0.2422827486025335	1.1158410829539336	1.7762092410155665	0.04757011807894173	0.7110926011038899	1.0192866007622536	0.054910296550403886	0.8811873168192376	1.3783896344033202	0.05588436846842929	1.1016597884188033	1.7609455981376028	0.018241054681256405	0.8726881002861611	1.8087098778359652	-0.026676103259591227	0.9510015337591696	1.8058852767371176	0.07640245683497972	1.17242130422388	1.7993411876794092	0.08572018791608539	0.5438497649349006	0.4919339447544047	0.07791307507739591	0.3991553369637052	0.29310297822746234	0.09436740892741435	0.4295269172556338	0.4110000031243733	0.20572418946231377	0.4913772657321882	0.503625249431276	0.32391304281248084	0.4142308464865724	0.3001123188971824	0.2933206547396073	0.3518036312543799	0.08885553781283473	0.2148814146296026	0.3747669457762875	0.01601220132766468	0.21397480806986746	0.35783916250372205	-0.0017361453120826155	0.24364593985655755	0.30497749928778395	0.0010974228547599712	-0.04506404366527331	0.6017287034058777	0.5896447850418048	-0.04325256330655031	0.685775272283779	0.8143812967510528	-0.0566584558623579	0.7110566864561831	1.0380161814049476	-0.04931560556126458	0.7164112404292977	1.134911541241232	-0.053599778355203354	0.7099775790539684	1.1553707733766008	-0.0681004133445334	0.7599529446880245	1.1417862786811204
